<svg aria-hidden="true" style="position: absolute; width: 0; height: 0; overflow: hidden;" version="1.1" xmlns="http://www.w3.org/2000/svg" xmlns:xlink="http://www.w3.org/1999/xlink">
<defs>
<symbol id="icon-film" viewBox="0 0 30 28">
<path d="M6 25v-2c0-0.547-0.453-1-1-1h-2c-0.547 0-1 0.453-1 1v2c0 0.547 0.453 1 1 1h2c0.547 0 1-0.453 1-1zM6 19v-2c0-0.547-0.453-1-1-1h-2c-0.547 0-1 0.453-1 1v2c0 0.547 0.453 1 1 1h2c0.547 0 1-0.453 1-1zM6 13v-2c0-0.547-0.453-1-1-1h-2c-0.547 0-1 0.453-1 1v2c0 0.547 0.453 1 1 1h2c0.547 0 1-0.453 1-1zM22 25v-8c0-0.547-0.453-1-1-1h-12c-0.547 0-1 0.453-1 1v8c0 0.547 0.453 1 1 1h12c0.547 0 1-0.453 1-1zM6 7v-2c0-0.547-0.453-1-1-1h-2c-0.547 0-1 0.453-1 1v2c0 0.547 0.453 1 1 1h2c0.547 0 1-0.453 1-1zM28 25v-2c0-0.547-0.453-1-1-1h-2c-0.547 0-1 0.453-1 1v2c0 0.547 0.453 1 1 1h2c0.547 0 1-0.453 1-1zM22 13v-8c0-0.547-0.453-1-1-1h-12c-0.547 0-1 0.453-1 1v8c0 0.547 0.453 1 1 1h12c0.547 0 1-0.453 1-1zM28 19v-2c0-0.547-0.453-1-1-1h-2c-0.547 0-1 0.453-1 1v2c0 0.547 0.453 1 1 1h2c0.547 0 1-0.453 1-1zM28 13v-2c0-0.547-0.453-1-1-1h-2c-0.547 0-1 0.453-1 1v2c0 0.547 0.453 1 1 1h2c0.547 0 1-0.453 1-1zM28 7v-2c0-0.547-0.453-1-1-1h-2c-0.547 0-1 0.453-1 1v2c0 0.547 0.453 1 1 1h2c0.547 0 1-0.453 1-1zM30 4.5v21c0 1.375-1.125 2.5-2.5 2.5h-25c-1.375 0-2.5-1.125-2.5-2.5v-21c0-1.375 1.125-2.5 2.5-2.5h25c1.375 0 2.5 1.125 2.5 2.5z"></path>
</symbol>
<symbol id="icon-repeat" viewBox="0 0 24 28">
<path d="M24 4v7c0 0.547-0.453 1-1 1h-7c-0.406 0-0.766-0.25-0.922-0.625-0.156-0.359-0.078-0.797 0.219-1.078l2.156-2.156c-1.469-1.359-3.406-2.141-5.453-2.141-4.406 0-8 3.594-8 8s3.594 8 8 8c2.484 0 4.781-1.125 6.312-3.109 0.078-0.109 0.219-0.172 0.359-0.187 0.141 0 0.281 0.047 0.391 0.141l2.141 2.156c0.187 0.172 0.187 0.469 0.031 0.672-2.281 2.75-5.656 4.328-9.234 4.328-6.609 0-12-5.391-12-12s5.391-12 12-12c3.078 0 6.062 1.234 8.266 3.313l2.031-2.016c0.281-0.297 0.719-0.375 1.094-0.219 0.359 0.156 0.609 0.516 0.609 0.922z"></path>
</symbol>
<symbol id="icon-align-left" viewBox="0 0 28 28">
<path d="M28 21v2c0 0.547-0.453 1-1 1h-26c-0.547 0-1-0.453-1-1v-2c0-0.547 0.453-1 1-1h26c0.547 0 1 0.453 1 1zM22 15v2c0 0.547-0.453 1-1 1h-20c-0.547 0-1-0.453-1-1v-2c0-0.547 0.453-1 1-1h20c0.547 0 1 0.453 1 1zM26 9v2c0 0.547-0.453 1-1 1h-24c-0.547 0-1-0.453-1-1v-2c0-0.547 0.453-1 1-1h24c0.547 0 1 0.453 1 1zM20 3v2c0 0.547-0.453 1-1 1h-18c-0.547 0-1-0.453-1-1v-2c0-0.547 0.453-1 1-1h18c0.547 0 1 0.453 1 1z"></path>
</symbol>
<symbol id="icon-align-center" viewBox="0 0 28 28">
<path d="M28 21v2c0 0.547-0.453 1-1 1h-26c-0.547 0-1-0.453-1-1v-2c0-0.547 0.453-1 1-1h26c0.547 0 1 0.453 1 1zM22 15v2c0 0.547-0.453 1-1 1h-14c-0.547 0-1-0.453-1-1v-2c0-0.547 0.453-1 1-1h14c0.547 0 1 0.453 1 1zM26 9v2c0 0.547-0.453 1-1 1h-22c-0.547 0-1-0.453-1-1v-2c0-0.547 0.453-1 1-1h22c0.547 0 1 0.453 1 1zM20 3v2c0 0.547-0.453 1-1 1h-10c-0.547 0-1-0.453-1-1v-2c0-0.547 0.453-1 1-1h10c0.547 0 1 0.453 1 1z"></path>
</symbol>
<symbol id="icon-align-right" viewBox="0 0 28 28">
<path d="M28 21v2c0 0.547-0.453 1-1 1h-26c-0.547 0-1-0.453-1-1v-2c0-0.547 0.453-1 1-1h26c0.547 0 1 0.453 1 1zM28 15v2c0 0.547-0.453 1-1 1h-20c-0.547 0-1-0.453-1-1v-2c0-0.547 0.453-1 1-1h20c0.547 0 1 0.453 1 1zM28 9v2c0 0.547-0.453 1-1 1h-24c-0.547 0-1-0.453-1-1v-2c0-0.547 0.453-1 1-1h24c0.547 0 1 0.453 1 1zM28 3v2c0 0.547-0.453 1-1 1h-18c-0.547 0-1-0.453-1-1v-2c0-0.547 0.453-1 1-1h18c0.547 0 1 0.453 1 1z"></path>
</symbol>
<symbol id="icon-align-justify" viewBox="0 0 28 28">
<path d="M28 21v2c0 0.547-0.453 1-1 1h-26c-0.547 0-1-0.453-1-1v-2c0-0.547 0.453-1 1-1h26c0.547 0 1 0.453 1 1zM28 15v2c0 0.547-0.453 1-1 1h-26c-0.547 0-1-0.453-1-1v-2c0-0.547 0.453-1 1-1h26c0.547 0 1 0.453 1 1zM28 9v2c0 0.547-0.453 1-1 1h-26c-0.547 0-1-0.453-1-1v-2c0-0.547 0.453-1 1-1h26c0.547 0 1 0.453 1 1zM28 3v2c0 0.547-0.453 1-1 1h-26c-0.547 0-1-0.453-1-1v-2c0-0.547 0.453-1 1-1h26c0.547 0 1 0.453 1 1z"></path>
</symbol>
<symbol id="icon-image" viewBox="0 0 30 28">
<path d="M10 9c0 1.656-1.344 3-3 3s-3-1.344-3-3 1.344-3 3-3 3 1.344 3 3zM26 15v7h-22v-3l5-5 2.5 2.5 8-8zM27.5 4h-25c-0.266 0-0.5 0.234-0.5 0.5v19c0 0.266 0.234 0.5 0.5 0.5h25c0.266 0 0.5-0.234 0.5-0.5v-19c0-0.266-0.234-0.5-0.5-0.5zM30 4.5v19c0 1.375-1.125 2.5-2.5 2.5h-25c-1.375 0-2.5-1.125-2.5-2.5v-19c0-1.375 1.125-2.5 2.5-2.5h25c1.375 0 2.5 1.125 2.5 2.5z"></path>
</symbol>
<symbol id="icon-chain" viewBox="0 0 26 28">
<path d="M22.75 19c0-0.406-0.156-0.781-0.438-1.062l-3.25-3.25c-0.281-0.281-0.672-0.438-1.062-0.438-0.453 0-0.812 0.172-1.125 0.5 0.516 0.516 1.125 0.953 1.125 1.75 0 0.828-0.672 1.5-1.5 1.5-0.797 0-1.234-0.609-1.75-1.125-0.328 0.313-0.516 0.672-0.516 1.141 0 0.391 0.156 0.781 0.438 1.062l3.219 3.234c0.281 0.281 0.672 0.422 1.062 0.422s0.781-0.141 1.062-0.406l2.297-2.281c0.281-0.281 0.438-0.656 0.438-1.047zM11.766 7.984c0-0.391-0.156-0.781-0.438-1.062l-3.219-3.234c-0.281-0.281-0.672-0.438-1.062-0.438s-0.781 0.156-1.062 0.422l-2.297 2.281c-0.281 0.281-0.438 0.656-0.438 1.047 0 0.406 0.156 0.781 0.438 1.062l3.25 3.25c0.281 0.281 0.672 0.422 1.062 0.422 0.453 0 0.812-0.156 1.125-0.484-0.516-0.516-1.125-0.953-1.125-1.75 0-0.828 0.672-1.5 1.5-1.5 0.797 0 1.234 0.609 1.75 1.125 0.328-0.313 0.516-0.672 0.516-1.141zM25.75 19c0 1.188-0.484 2.344-1.328 3.172l-2.297 2.281c-0.844 0.844-1.984 1.297-3.172 1.297-1.203 0-2.344-0.469-3.187-1.328l-3.219-3.234c-0.844-0.844-1.297-1.984-1.297-3.172 0-1.234 0.5-2.406 1.375-3.266l-1.375-1.375c-0.859 0.875-2.016 1.375-3.25 1.375-1.188 0-2.344-0.469-3.187-1.313l-3.25-3.25c-0.859-0.859-1.313-1.984-1.313-3.187 0-1.188 0.484-2.344 1.328-3.172l2.297-2.281c0.844-0.844 1.984-1.297 3.172-1.297 1.203 0 2.344 0.469 3.187 1.328l3.219 3.234c0.844 0.844 1.297 1.984 1.297 3.172 0 1.234-0.5 2.406-1.375 3.266l1.375 1.375c0.859-0.875 2.016-1.375 3.25-1.375 1.188 0 2.344 0.469 3.187 1.313l3.25 3.25c0.859 0.859 1.313 1.984 1.313 3.187z"></path>
</symbol>
<symbol id="icon-list-ul" viewBox="0 0 28 28">
<path d="M6 22c0 1.656-1.344 3-3 3s-3-1.344-3-3 1.344-3 3-3 3 1.344 3 3zM6 14c0 1.656-1.344 3-3 3s-3-1.344-3-3 1.344-3 3-3 3 1.344 3 3zM28 20.5v3c0 0.266-0.234 0.5-0.5 0.5h-19c-0.266 0-0.5-0.234-0.5-0.5v-3c0-0.266 0.234-0.5 0.5-0.5h19c0.266 0 0.5 0.234 0.5 0.5zM6 6c0 1.656-1.344 3-3 3s-3-1.344-3-3 1.344-3 3-3 3 1.344 3 3zM28 12.5v3c0 0.266-0.234 0.5-0.5 0.5h-19c-0.266 0-0.5-0.234-0.5-0.5v-3c0-0.266 0.234-0.5 0.5-0.5h19c0.266 0 0.5 0.234 0.5 0.5zM28 4.5v3c0 0.266-0.234 0.5-0.5 0.5h-19c-0.266 0-0.5-0.234-0.5-0.5v-3c0-0.266 0.234-0.5 0.5-0.5h19c0.266 0 0.5 0.234 0.5 0.5z"></path>
</symbol>
<symbol id="icon-list-ol" viewBox="0 0 28 28">
<path d="M5.953 25.312c0 1.719-1.344 2.688-2.969 2.688-0.984 0-1.984-0.328-2.688-1.031l0.891-1.375c0.422 0.391 1.062 0.703 1.656 0.703 0.547 0 1.125-0.266 1.125-0.891 0-0.875-1-0.922-1.641-0.875l-0.406-0.875c0.562-0.719 1.078-1.516 1.75-2.125v-0.016c-0.5 0-1.016 0.031-1.516 0.031v0.828h-1.656v-2.375h5.203v1.375l-1.484 1.797c1.047 0.25 1.734 1.062 1.734 2.141zM5.984 15.516v2.484h-5.656c-0.047-0.281-0.094-0.562-0.094-0.844 0-2.891 3.531-3.328 3.531-4.641 0-0.531-0.328-0.812-0.844-0.812-0.547 0-1 0.469-1.266 0.906l-1.328-0.922c0.516-1.078 1.578-1.687 2.766-1.687 1.453 0 2.703 0.859 2.703 2.406 0 2.312-3.391 2.828-3.437 4.047h1.984v-0.938h1.641zM28 20.5v3c0 0.266-0.234 0.5-0.5 0.5h-19c-0.281 0-0.5-0.234-0.5-0.5v-3c0-0.281 0.219-0.5 0.5-0.5h19c0.266 0 0.5 0.219 0.5 0.5zM6 6.453v1.547h-5.234v-1.547h1.672c0-1.266 0.016-2.531 0.016-3.797v-0.187h-0.031c-0.172 0.344-0.484 0.578-0.781 0.844l-1.109-1.188 2.125-1.984h1.656v6.312h1.687zM28 12.5v3c0 0.266-0.234 0.5-0.5 0.5h-19c-0.281 0-0.5-0.234-0.5-0.5v-3c0-0.281 0.219-0.5 0.5-0.5h19c0.266 0 0.5 0.219 0.5 0.5zM28 4.5v3c0 0.266-0.234 0.5-0.5 0.5h-19c-0.281 0-0.5-0.234-0.5-0.5v-3c0-0.266 0.219-0.5 0.5-0.5h19c0.266 0 0.5 0.234 0.5 0.5z"></path>
</symbol>
<symbol id="icon-table" viewBox="0 0 26 28">
<path d="M8 21.5v-3c0-0.281-0.219-0.5-0.5-0.5h-5c-0.281 0-0.5 0.219-0.5 0.5v3c0 0.281 0.219 0.5 0.5 0.5h5c0.281 0 0.5-0.219 0.5-0.5zM8 15.5v-3c0-0.281-0.219-0.5-0.5-0.5h-5c-0.281 0-0.5 0.219-0.5 0.5v3c0 0.281 0.219 0.5 0.5 0.5h5c0.281 0 0.5-0.219 0.5-0.5zM16 21.5v-3c0-0.281-0.219-0.5-0.5-0.5h-5c-0.281 0-0.5 0.219-0.5 0.5v3c0 0.281 0.219 0.5 0.5 0.5h5c0.281 0 0.5-0.219 0.5-0.5zM8 9.5v-3c0-0.281-0.219-0.5-0.5-0.5h-5c-0.281 0-0.5 0.219-0.5 0.5v3c0 0.281 0.219 0.5 0.5 0.5h5c0.281 0 0.5-0.219 0.5-0.5zM16 15.5v-3c0-0.281-0.219-0.5-0.5-0.5h-5c-0.281 0-0.5 0.219-0.5 0.5v3c0 0.281 0.219 0.5 0.5 0.5h5c0.281 0 0.5-0.219 0.5-0.5zM24 21.5v-3c0-0.281-0.219-0.5-0.5-0.5h-5c-0.281 0-0.5 0.219-0.5 0.5v3c0 0.281 0.219 0.5 0.5 0.5h5c0.281 0 0.5-0.219 0.5-0.5zM16 9.5v-3c0-0.281-0.219-0.5-0.5-0.5h-5c-0.281 0-0.5 0.219-0.5 0.5v3c0 0.281 0.219 0.5 0.5 0.5h5c0.281 0 0.5-0.219 0.5-0.5zM24 15.5v-3c0-0.281-0.219-0.5-0.5-0.5h-5c-0.281 0-0.5 0.219-0.5 0.5v3c0 0.281 0.219 0.5 0.5 0.5h5c0.281 0 0.5-0.219 0.5-0.5zM24 9.5v-3c0-0.281-0.219-0.5-0.5-0.5h-5c-0.281 0-0.5 0.219-0.5 0.5v3c0 0.281 0.219 0.5 0.5 0.5h5c0.281 0 0.5-0.219 0.5-0.5zM26 4.5v17c0 1.375-1.125 2.5-2.5 2.5h-21c-1.375 0-2.5-1.125-2.5-2.5v-17c0-1.375 1.125-2.5 2.5-2.5h21c1.375 0 2.5 1.125 2.5 2.5z"></path>
</symbol>
<symbol id="icon-rotate-left" viewBox="0 0 24 28">
<path d="M24 14c0 6.609-5.391 12-12 12-3.578 0-6.953-1.578-9.234-4.328-0.156-0.203-0.141-0.5 0.031-0.672l2.141-2.156c0.109-0.094 0.25-0.141 0.391-0.141 0.141 0.016 0.281 0.078 0.359 0.187 1.531 1.984 3.828 3.109 6.312 3.109 4.406 0 8-3.594 8-8s-3.594-8-8-8c-2.047 0-3.984 0.781-5.437 2.141l2.141 2.156c0.297 0.281 0.375 0.719 0.219 1.078-0.156 0.375-0.516 0.625-0.922 0.625h-7c-0.547 0-1-0.453-1-1v-7c0-0.406 0.25-0.766 0.625-0.922 0.359-0.156 0.797-0.078 1.078 0.219l2.031 2.016c2.203-2.078 5.187-3.313 8.266-3.313 6.609 0 12 5.391 12 12z"></path>
</symbol>
<symbol id="icon-quote-left" viewBox="0 0 26 28">
<path d="M12 15v6c0 1.656-1.344 3-3 3h-6c-1.656 0-3-1.344-3-3v-11c0-4.406 3.594-8 8-8h1c0.547 0 1 0.453 1 1v2c0 0.547-0.453 1-1 1h-1c-2.203 0-4 1.797-4 4v0.5c0 0.828 0.672 1.5 1.5 1.5h3.5c1.656 0 3 1.344 3 3zM26 15v6c0 1.656-1.344 3-3 3h-6c-1.656 0-3-1.344-3-3v-11c0-4.406 3.594-8 8-8h1c0.547 0 1 0.453 1 1v2c0 0.547-0.453 1-1 1h-1c-2.203 0-4 1.797-4 4v0.5c0 0.828 0.672 1.5 1.5 1.5h3.5c1.656 0 3 1.344 3 3z"></path>
</symbol>
<symbol id="icon-eraser" viewBox="0 0 30 28">
<path d="M14 22l5.25-6h-12l-5.25 6h12zM29.828 5.172c0.313 0.719 0.187 1.547-0.328 2.141l-14 16c-0.375 0.438-0.922 0.688-1.5 0.688h-12c-0.781 0-1.5-0.453-1.828-1.172-0.313-0.719-0.187-1.547 0.328-2.141l14-16c0.375-0.438 0.922-0.688 1.5-0.688h12c0.781 0 1.5 0.453 1.828 1.172z"></path>
</symbol>
<symbol id="icon-dedent" viewBox="0 0 28 28">
<path d="M6 8.5v9c0 0.266-0.234 0.5-0.5 0.5-0.125 0-0.266-0.047-0.359-0.141l-4.5-4.5c-0.094-0.094-0.141-0.234-0.141-0.359s0.047-0.266 0.141-0.359l4.5-4.5c0.094-0.094 0.234-0.141 0.359-0.141 0.266 0 0.5 0.234 0.5 0.5zM28 20.5v3c0 0.266-0.234 0.5-0.5 0.5h-27c-0.266 0-0.5-0.234-0.5-0.5v-3c0-0.266 0.234-0.5 0.5-0.5h27c0.266 0 0.5 0.234 0.5 0.5zM28 14.5v3c0 0.266-0.234 0.5-0.5 0.5h-17c-0.266 0-0.5-0.234-0.5-0.5v-3c0-0.266 0.234-0.5 0.5-0.5h17c0.266 0 0.5 0.234 0.5 0.5zM28 8.5v3c0 0.266-0.234 0.5-0.5 0.5h-17c-0.266 0-0.5-0.234-0.5-0.5v-3c0-0.266 0.234-0.5 0.5-0.5h17c0.266 0 0.5 0.234 0.5 0.5zM28 2.5v3c0 0.266-0.234 0.5-0.5 0.5h-27c-0.266 0-0.5-0.234-0.5-0.5v-3c0-0.266 0.234-0.5 0.5-0.5h27c0.266 0 0.5 0.234 0.5 0.5z"></path>
</symbol>
<symbol id="icon-indent" viewBox="0 0 28 28">
<path d="M5.5 13c0 0.125-0.047 0.266-0.141 0.359l-4.5 4.5c-0.094 0.094-0.234 0.141-0.359 0.141-0.266 0-0.5-0.234-0.5-0.5v-9c0-0.266 0.234-0.5 0.5-0.5 0.125 0 0.266 0.047 0.359 0.141l4.5 4.5c0.094 0.094 0.141 0.234 0.141 0.359zM28 20.5v3c0 0.266-0.234 0.5-0.5 0.5h-27c-0.266 0-0.5-0.234-0.5-0.5v-3c0-0.266 0.234-0.5 0.5-0.5h27c0.266 0 0.5 0.234 0.5 0.5zM28 14.5v3c0 0.266-0.234 0.5-0.5 0.5h-17c-0.266 0-0.5-0.234-0.5-0.5v-3c0-0.266 0.234-0.5 0.5-0.5h17c0.266 0 0.5 0.234 0.5 0.5zM28 8.5v3c0 0.266-0.234 0.5-0.5 0.5h-17c-0.266 0-0.5-0.234-0.5-0.5v-3c0-0.266 0.234-0.5 0.5-0.5h17c0.266 0 0.5 0.234 0.5 0.5zM28 2.5v3c0 0.266-0.234 0.5-0.5 0.5h-27c-0.266 0-0.5-0.234-0.5-0.5v-3c0-0.266 0.234-0.5 0.5-0.5h27c0.266 0 0.5 0.234 0.5 0.5z"></path>
</symbol>
<symbol id="icon-superscript" viewBox="0 0 24 28">
<path d="M14.016 21.391v2.609h-3.875l-2.484-3.938-0.375-0.656c-0.094-0.109-0.141-0.219-0.172-0.328h-0.047c-0.031 0.109-0.094 0.219-0.141 0.328-0.094 0.187-0.234 0.438-0.391 0.688l-2.422 3.906h-4.031v-2.609h2l3.078-4.547-2.891-4.25h-2.141v-2.625h4.312l2.172 3.563c0.141 0.219 0.25 0.453 0.359 0.656 0.094 0.109 0.141 0.219 0.172 0.328h0.047c0.031-0.109 0.094-0.219 0.172-0.328l0.391-0.656 2.188-3.563h4.016v2.625h-1.953l-2.875 4.172 3.187 4.625h1.703zM23.969 10.781v3.219h-8.031l-0.047-0.422c-0.031-0.219-0.063-0.516-0.063-0.719 0-4.266 5.469-4.625 5.469-6.891 0-0.812-0.734-1.359-1.563-1.359-0.594 0-1.125 0.281-1.516 0.609-0.203 0.172-0.391 0.391-0.562 0.594l-1.641-1.437c0.281-0.391 0.594-0.719 0.984-1.031 0.656-0.516 1.609-1.016 2.938-1.016 2.266 0 3.844 1.328 3.844 3.406 0 3.75-5.187 4.062-5.406 6.297h3.625v-1.25h1.969z"></path>
</symbol>
<symbol id="icon-subscript" viewBox="0 0 24 28">
<path d="M14.016 21.391v2.609h-3.875l-2.484-3.938-0.375-0.656c-0.094-0.109-0.141-0.219-0.172-0.328h-0.047c-0.031 0.109-0.094 0.219-0.141 0.328-0.094 0.187-0.234 0.438-0.391 0.688l-2.422 3.906h-4.031v-2.609h2l3.078-4.547-2.891-4.25h-2.141v-2.625h4.312l2.172 3.563c0.141 0.219 0.25 0.453 0.359 0.656 0.094 0.109 0.141 0.219 0.172 0.328h0.047c0.031-0.109 0.094-0.219 0.172-0.328l0.391-0.656 2.188-3.563h4.016v2.625h-1.953l-2.875 4.172 3.187 4.625h1.703zM24 24.781v3.219h-8.031l-0.063-0.422c-0.016-0.234-0.047-0.516-0.047-0.719 0-4.266 5.469-4.625 5.469-6.891 0-0.812-0.734-1.359-1.563-1.359-0.609 0-1.125 0.281-1.516 0.609-0.203 0.172-0.391 0.391-0.562 0.594l-1.641-1.437c0.281-0.391 0.594-0.719 0.984-1.031 0.656-0.531 1.609-1.016 2.938-1.016 2.266 0 3.844 1.328 3.844 3.406 0 3.734-5.187 4.047-5.406 6.297h3.625v-1.25h1.969z"></path>
</symbol>
<symbol id="icon-underline" viewBox="0 0 24 28">
<path d="M0.75 3.484c-0.281-0.016-0.516-0.016-0.703-0.063l-0.047-1.375c0.203-0.016 0.406-0.016 0.625-0.016 0.547 0 1.141 0.016 1.75 0.063 1.469 0.078 2.344 0.109 2.594 0.109 0.891 0 1.766-0.016 2.625-0.047 0.844-0.031 1.609-0.063 2.281-0.078 0.656 0 1.109-0.016 1.344-0.031l-0.016 0.219 0.031 1v0.141c-0.625 0.094-1.266 0.141-1.937 0.141-0.625 0-1.031 0.125-1.234 0.391-0.141 0.156-0.203 0.844-0.203 2.063 0 0.375 0.016 0.672 0.016 0.906l0.016 3.578 0.219 4.375c0.063 1.266 0.313 2.312 0.797 3.156 0.359 0.609 0.859 1.094 1.5 1.437 0.938 0.5 1.859 0.734 2.766 0.734 1.062 0 2.063-0.141 2.984-0.438 0.547-0.172 1.062-0.422 1.547-0.797 0.484-0.359 0.828-0.688 1.016-1 0.406-0.625 0.672-1.234 0.828-1.781 0.219-0.766 0.328-1.953 0.328-3.578 0-2.797-0.203-2.875-0.438-6.406l-0.063-0.922c-0.047-0.672-0.156-1.141-0.375-1.375-0.344-0.359-0.75-0.547-1.203-0.531l-1.563 0.031-0.219-0.047 0.031-1.344h1.313l3.203 0.156c1.062 0.047 2.078-0.047 3.063-0.156l0.281 0.031c0.063 0.391 0.094 0.656 0.094 0.797s-0.031 0.297-0.063 0.484c-0.422 0.109-0.859 0.187-1.313 0.203-0.734 0.109-1.156 0.187-1.234 0.266-0.141 0.141-0.234 0.344-0.234 0.641 0 0.203 0.031 0.516 0.047 0.906 0 0 0.125 0.281 0.344 6.188 0.078 2.359-0.078 3.953-0.234 4.75s-0.375 1.437-0.641 1.906c-0.406 0.688-1 1.328-1.75 1.922-0.766 0.578-1.703 1.047-2.844 1.391s-2.469 0.516-3.984 0.516c-1.719 0-3.203-0.234-4.438-0.719s-2.172-1.125-2.797-1.906-1.062-1.797-1.297-3.047c-0.172-0.859-0.25-2.094-0.25-3.703v-5.203c0-1.969-0.094-3.078-0.266-3.328-0.25-0.359-1.016-0.578-2.297-0.609zM24 25.5v-1c0-0.281-0.219-0.5-0.5-0.5h-23c-0.281 0-0.5 0.219-0.5 0.5v1c0 0.281 0.219 0.5 0.5 0.5h23c0.281 0 0.5-0.219 0.5-0.5z"></path>
</symbol>
<symbol id="icon-italic" viewBox="0 0 16 28">
<path d="M0 25.969l0.266-1.328c1-0.313 2.078-0.438 3.016-0.922 0.359-0.453 0.531-1.031 0.641-1.578 0.203-1.062 3.609-16.391 3.563-17.641v-0.391c-0.859-0.469-1.906-0.344-2.844-0.5l0.297-1.609c2.016 0.094 4.062 0.25 6.094 0.25 1.656 0 3.313-0.156 4.969-0.25-0.063 0.469-0.172 0.938-0.297 1.391-1.078 0.375-2.219 0.547-3.281 0.969-0.344 0.844-0.422 1.766-0.578 2.656-0.75 4.047-1.75 8.094-2.578 12.109-0.156 0.75-0.922 3.859-0.859 4.516l0.016 0.281c0.953 0.219 1.922 0.328 2.891 0.484-0.031 0.516-0.125 1.031-0.25 1.547-0.344 0-0.672 0.047-1.016 0.047-0.891 0-1.813-0.297-2.703-0.313-1.078-0.016-2.156-0.031-3.219-0.031-1.391 0-2.75 0.234-4.125 0.313z"></path>
</symbol>
<symbol id="icon-bold" viewBox="0 0 22 28">
<path d="M8.672 23.766c0.688 0.297 1.437 0.5 2.188 0.5 3.563 0 5.875-1.422 5.875-5.234 0-0.969-0.125-1.984-0.641-2.812-1.453-2.344-3.547-2.469-6.062-2.469-0.469 0-1.141 0-1.578 0.156 0 1.656-0.016 3.313-0.016 4.953 0 1.078-0.141 4 0.234 4.906zM8.453 12.109c0.562 0.094 1.141 0.109 1.703 0.109 3.219 0 5.516-0.906 5.516-4.516 0-3.047-2.703-4.094-5.313-4.094-0.688 0-1.359 0.094-2.031 0.203 0 1.578 0.125 3.156 0.125 4.734 0 0.828-0.016 1.656-0.016 2.484 0 0.359 0 0.719 0.016 1.078zM0 26l0.031-1.469c1-0.25 2.016-0.266 2.984-0.672 0.547-0.922 0.469-2.547 0.469-3.594 0-0.344 0.031-15.281-0.344-16.016-0.234-0.453-2.531-0.562-3.047-0.625l-0.063-1.297c3.719-0.063 7.438-0.328 11.141-0.328 0.703 0 1.422 0.016 2.125 0.016 3.531 0 7.422 1.687 7.422 5.75 0 2.797-2.125 3.844-4.328 4.844 2.969 0.672 5.609 2.688 5.609 5.969 0 5.375-4.891 7.156-9.469 7.156-1.375 0-2.75-0.094-4.125-0.094-2.797 0-5.625 0.25-8.406 0.359z"></path>
</symbol>
<symbol id="icon-strikethrough" viewBox="0 0 28 28">
<path d="M27.5 14c0.281 0 0.5 0.219 0.5 0.5v1c0 0.281-0.219 0.5-0.5 0.5h-27c-0.281 0-0.5-0.219-0.5-0.5v-1c0-0.281 0.219-0.5 0.5-0.5h27zM7.547 13c-0.297-0.375-0.562-0.797-0.797-1.25-0.5-1.016-0.75-2-0.75-2.938 0-1.906 0.703-3.5 2.094-4.828s3.437-1.984 6.141-1.984c0.594 0 1.453 0.109 2.609 0.297 0.688 0.125 1.609 0.375 2.766 0.75 0.109 0.406 0.219 1.031 0.328 1.844 0.141 1.234 0.219 2.187 0.219 2.859 0 0.219-0.031 0.453-0.078 0.703l-0.187 0.047-1.313-0.094-0.219-0.031c-0.531-1.578-1.078-2.641-1.609-3.203-0.922-0.953-2.031-1.422-3.281-1.422-1.188 0-2.141 0.313-2.844 0.922s-1.047 1.375-1.047 2.281c0 0.766 0.344 1.484 1.031 2.188s2.141 1.375 4.359 2.016c0.75 0.219 1.641 0.562 2.703 1.031 0.562 0.266 1.062 0.531 1.484 0.812h-11.609zM15.469 17h6.422c0.078 0.438 0.109 0.922 0.109 1.437 0 1.125-0.203 2.234-0.641 3.313-0.234 0.578-0.594 1.109-1.109 1.625-0.375 0.359-0.938 0.781-1.703 1.266-0.781 0.469-1.563 0.828-2.391 1.031-0.828 0.219-1.875 0.328-3.172 0.328-0.859 0-1.891-0.031-3.047-0.359l-2.188-0.625c-0.609-0.172-0.969-0.313-1.125-0.438-0.063-0.063-0.125-0.172-0.125-0.344v-0.203c0-0.125 0.031-0.938-0.031-2.438-0.031-0.781 0.031-1.328 0.031-1.641v-0.688l1.594-0.031c0.578 1.328 0.844 2.125 1.016 2.406 0.375 0.609 0.797 1.094 1.25 1.469s1 0.672 1.641 0.891c0.625 0.234 1.328 0.344 2.063 0.344 0.656 0 1.391-0.141 2.172-0.422 0.797-0.266 1.437-0.719 1.906-1.344 0.484-0.625 0.734-1.297 0.734-2.016 0-0.875-0.422-1.687-1.266-2.453-0.344-0.297-1.062-0.672-2.141-1.109z"></path>
</symbol>
</defs>
</svg>
