<svg aria-hidden="true" style="position: absolute; width: 0; height: 0; overflow: hidden;" version="1.1" xmlns="http://www.w3.org/2000/svg" xmlns:xlink="http://www.w3.org/1999/xlink">
<defs>
<symbol id="icon-chat_bubble" viewBox="0 0 24 24">
<path d="M20.016 2.016q0.797 0 1.383 0.586t0.586 1.383v12q0 0.797-0.586 1.406t-1.383 0.609h-14.016l-3.984 3.984v-18q0-0.797 0.586-1.383t1.383-0.586h16.031z"></path>
</symbol>
<symbol id="icon-favorite" viewBox="0 0 24 24">
<path d="M12 21.328l-1.453-1.313q-2.484-2.25-3.609-3.328t-2.508-2.672-1.898-2.883-0.516-2.648q0-2.297 1.57-3.891t3.914-1.594q2.719 0 4.5 2.109 1.781-2.109 4.5-2.109 2.344 0 3.914 1.594t1.57 3.891q0 1.828-1.219 3.797t-2.648 3.422-4.664 4.359z"></path>
</symbol>
<symbol id="icon-home" viewBox="0 0 24 24">
<path d="M9.984 20.016h-4.969v-8.016h-3l9.984-9 9.984 9h-3v8.016h-4.969v-6h-4.031v6z"></path>
</symbol>
<symbol id="icon-settings" viewBox="0 0 24 24">
<path d="M12 15.516q1.453 0 2.484-1.031t1.031-2.484-1.031-2.484-2.484-1.031-2.484 1.031-1.031 2.484 1.031 2.484 2.484 1.031zM19.453 12.984l2.109 1.641q0.328 0.234 0.094 0.656l-2.016 3.469q-0.188 0.328-0.609 0.188l-2.484-0.984q-0.984 0.703-1.688 0.984l-0.375 2.625q-0.094 0.422-0.469 0.422h-4.031q-0.375 0-0.469-0.422l-0.375-2.625q-0.891-0.375-1.688-0.984l-2.484 0.984q-0.422 0.141-0.609-0.188l-2.016-3.469q-0.234-0.422 0.094-0.656l2.109-1.641q-0.047-0.328-0.047-0.984t0.047-0.984l-2.109-1.641q-0.328-0.234-0.094-0.656l2.016-3.469q0.188-0.328 0.609-0.188l2.484 0.984q0.984-0.703 1.688-0.984l0.375-2.625q0.094-0.422 0.469-0.422h4.031q0.375 0 0.469 0.422l0.375 2.625q0.891 0.375 1.688 0.984l2.484-0.984q0.422-0.141 0.609 0.188l2.016 3.469q0.234 0.422-0.094 0.656l-2.109 1.641q0.047 0.328 0.047 0.984t-0.047 0.984z"></path>
</symbol>
<symbol id="icon-delete_outline" viewBox="0 0 24 24">
<path d="M15.516 3.984h3.469v2.016h-13.969v-2.016h3.469l1.031-0.984h4.969zM8.016 9v9.984h7.969v-9.984h-7.969zM6 18.984v-12h12v12q0 0.797-0.609 1.406t-1.406 0.609h-7.969q-0.797 0-1.406-0.609t-0.609-1.406z"></path>
</symbol>
<symbol id="icon-drive_file_rename_outline" viewBox="0 0 24 24">
<path d="M11.016 20.016l3.984-4.031h6v4.031h-9.984zM6.188 18l8.672-8.672-1.219-1.219-8.625 8.672v1.219h1.172zM18.422 5.813q0.609 0.609 0.609 1.406t-0.609 1.406l-11.391 11.391h-4.031v-4.078q11.25-11.203 11.391-11.344 0.609-0.609 1.406-0.609t1.406 0.609z"></path>
</symbol>
<symbol id="icon-person_add" viewBox="0 0 24 24">
<path d="M15 14.016q2.531 0 5.273 1.102t2.742 2.883v2.016h-16.031v-2.016q0-1.781 2.742-2.883t5.273-1.102zM6 9.984h3v2.016h-3v3h-2.016v-3h-3v-2.016h3v-3h2.016v3zM15 12q-1.641 0-2.813-1.172t-1.172-2.813 1.172-2.836 2.813-1.195 2.813 1.195 1.172 2.836-1.172 2.813-2.813 1.172z"></path>
</symbol>
<symbol id="icon-clear" viewBox="0 0 24 24">
<path d="M18.984 6.422l-5.578 5.578 5.578 5.578-1.406 1.406-5.578-5.578-5.578 5.578-1.406-1.406 5.578-5.578-5.578-5.578 1.406-1.406 5.578 5.578 5.578-5.578z"></path>
</symbol>
<symbol id="icon-search" viewBox="0 0 24 24">
<path d="M9.516 14.016q1.875 0 3.188-1.313t1.313-3.188-1.313-3.188-3.188-1.313-3.188 1.313-1.313 3.188 1.313 3.188 3.188 1.313zM15.516 14.016l4.969 4.969-1.5 1.5-4.969-4.969v-0.797l-0.281-0.281q-1.781 1.547-4.219 1.547-2.719 0-4.617-1.875t-1.898-4.594 1.898-4.617 4.617-1.898 4.594 1.898 1.875 4.617q0 0.984-0.469 2.227t-1.078 1.992l0.281 0.281h0.797z"></path>
</symbol>
<symbol id="icon-keyboard_control" viewBox="0 0 24 24">
<path d="M12 9.984q0.797 0 1.406 0.609t0.609 1.406-0.609 1.406-1.406 0.609-1.406-0.609-0.609-1.406 0.609-1.406 1.406-0.609zM18 9.984q0.797 0 1.406 0.609t0.609 1.406-0.609 1.406-1.406 0.609-1.406-0.609-0.609-1.406 0.609-1.406 1.406-0.609zM6 9.984q0.797 0 1.406 0.609t0.609 1.406-0.609 1.406-1.406 0.609-1.406-0.609-0.609-1.406 0.609-1.406 1.406-0.609z"></path>
</symbol>
<symbol id="icon-more_vert" viewBox="0 0 24 24">
<path d="M12 15.984q0.797 0 1.406 0.609t0.609 1.406-0.609 1.406-1.406 0.609-1.406-0.609-0.609-1.406 0.609-1.406 1.406-0.609zM12 9.984q0.797 0 1.406 0.609t0.609 1.406-0.609 1.406-1.406 0.609-1.406-0.609-0.609-1.406 0.609-1.406 1.406-0.609zM12 8.016q-0.797 0-1.406-0.609t-0.609-1.406 0.609-1.406 1.406-0.609 1.406 0.609 0.609 1.406-0.609 1.406-1.406 0.609z"></path>
</symbol>
<symbol id="icon-content_copy" viewBox="0 0 24 24">
<path d="M18.984 21v-14.016h-10.969v14.016h10.969zM18.984 5.016q0.797 0 1.406 0.586t0.609 1.383v14.016q0 0.797-0.609 1.406t-1.406 0.609h-10.969q-0.797 0-1.406-0.609t-0.609-1.406v-14.016q0-0.797 0.609-1.383t1.406-0.586h10.969zM15.984 0.984v2.016h-12v14.016h-1.969v-14.016q0-0.797 0.586-1.406t1.383-0.609h12z"></path>
</symbol>
</defs>
</svg>
